<svg width="17" height="17" viewBox="0 0 17 17" fill="none" xmlns="http://www.w3.org/2000/svg">
<g id="copyright (14)" clip-path="url(#clip0_2586_8367)">
<path id="Vector" d="M8.50004 15.1667C12.1819 15.1667 15.1667 12.1819 15.1667 8.50004C15.1667 4.81814 12.1819 1.83337 8.50004 1.83337C4.81814 1.83337 1.83337 4.81814 1.83337 8.50004C1.83337 12.1819 4.81814 15.1667 8.50004 15.1667Z" stroke="#333333" stroke-opacity="0.56" stroke-width="1.90625" stroke-linecap="round" stroke-linejoin="round"/>
<path id="Vector_2" d="M10.5 6.73604C10.1417 6.32984 9.66823 6.04238 9.14254 5.9119C8.61685 5.78143 8.0639 5.81412 7.55725 6.00564C7.0506 6.19716 6.61429 6.53842 6.30636 6.98401C5.99843 7.42961 5.8335 7.9584 5.8335 8.50004C5.8335 9.04168 5.99843 9.57048 6.30636 10.0161C6.61429 10.4617 7.0506 10.8029 7.55725 10.9944C8.0639 11.186 8.61685 11.2187 9.14254 11.0882C9.66823 10.9577 10.1417 10.6702 10.5 10.264" stroke="#333333" stroke-opacity="0.56" stroke-width="1.90625" stroke-linecap="round" stroke-linejoin="round"/>
</g>
<defs>
<clipPath id="clip0_2586_8367">
<rect width="16" height="16" fill="white" transform="translate(0.5 0.5)"/>
</clipPath>
</defs>
</svg>
